<svg xmlns="http://www.w3.org/2000/svg" version="1.1" xmlns:xlink="http://www.w3.org/1999/xlink" xmlns:svgjs="http://svgjs.dev/svgjs" width="1000" height="1000" viewBox="0 0 1000 1000"><rect width="1000" height="1000" fill="#ffffff"></rect><g transform="matrix(0.7,0,0,0.7,149.5757600183441,423.42165714129067)"><svg viewBox="0 0 396 87" data-background-color="#ffffff" preserveAspectRatio="xMidYMid meet" height="219" width="1000" xmlns="http://www.w3.org/2000/svg" xmlns:xlink="http://www.w3.org/1999/xlink"><defs></defs><g id="tight-bounds" transform="matrix(1,0,0,1,0.23999861819390844,-0.040666479401750166)"><svg viewBox="0 0 395.52 87.08133295880349" height="87.08133295880349" width="395.52"><g><svg viewBox="0 0 541.9361270140871 119.31765857331649" height="87.08133295880349" width="395.52"><g><rect width="4.376202328796201" height="86.76863014919178" x="406.9760270387335" y="16.274514212062357" fill="#000000" opacity="1" stroke-width="0" stroke="transparent" fill-opacity="1" class="rect-o-0" data-fill-palette-color="primary" rx="1%" id="o-0" data-palette-color="#919591"></rect></g><g transform="matrix(1,0,0,1,0,16.490356575617554)"><svg viewBox="0 0 395.52 86.33694542208139" height="86.33694542208139" width="395.52"><g><svg viewBox="0 0 395.52 86.33694542208139" height="86.33694542208139" width="395.52"><g><svg viewBox="0 0 395.52 48.526860158311344" height="48.526860158311344" width="395.52"><g transform="matrix(1,0,0,1,0,0)"><svg width="395.52" viewBox="1 -36.20000076293945 307.5799865722656 37.20000076293945" height="48.526860158311344" data-palette-color="#919591"><g class="undefined-text-0" data-fill-palette-color="primary" id="text-0"><path d="M10.9 0.05L6.75 0 2.45 0.2Q1 0.2 1-0.4L1-0.4Q1-1.1 1.75-1.35L1.75-1.35Q3.35-1.95 4.55-4.03 5.75-6.1 10.58-16.57 15.4-27.05 19.15-35.05L19.15-35.05Q19.5-35.8 19.78-36 20.05-36.2 20.58-36.2 21.1-36.2 21.25-36 21.4-35.8 21.8-34.65 22.2-33.5 22.43-32.9 22.65-32.3 23.15-30.95 23.65-29.6 24.75-26.9 25.85-24.2 29.78-15.08 33.7-5.95 34.3-4.73 34.9-3.5 35.95-2.63 37-1.75 37.77-1.68 38.55-1.6 39.08-1.43 39.6-1.25 39.6-0.65L39.6-0.65Q39.6 0.1 38.25 0.1L38.25 0.1 33.75-0.2 29.1 0Q27.55 0 27.13-0.13 26.7-0.25 26.7-0.65 26.7-1.05 27.1-1.28 27.5-1.5 27.95-1.58 28.4-1.65 28.8-2.02 29.2-2.4 29.2-3.28 29.2-4.15 27.95-7.55 26.7-10.95 25.85-12.55L25.85-12.55Q25.4-13.4 23.8-13.4L23.8-13.4 17.75-13.3 15.1-13.3Q12.85-13.3 12.28-13.05 11.7-12.8 11.33-12 10.95-11.2 10.25-9.78 9.55-8.35 9.3-7.8 9.05-7.25 8.7-6.4L8.7-6.4Q8.05-4.9 8.05-3.9 8.05-2.9 8.63-2.3 9.2-1.7 9.9-1.6L9.9-1.6Q11.75-1.45 11.75-0.65L11.75-0.65Q11.75-0.3 11.6-0.13 11.45 0.05 10.9 0.05L10.9 0.05ZM18.8-28.5Q18.35-28.5 15.95-22.98 13.55-17.45 13.55-16.85 13.55-16.25 14-16.1 14.45-15.95 16.1-15.95L16.1-15.95 17.65-15.95 22.4-16Q24.35-16 24.35-16.73 24.35-17.45 21.9-22.98 19.45-28.5 18.8-28.5L18.8-28.5ZM46.45-5.65L46.5-21.4 46.45-29.85Q46.45-31.7 45.7-32.68 44.95-33.65 44.02-33.77 43.1-33.9 42.35-34.1 41.6-34.3 41.6-34.8L41.6-34.8Q41.6-35.6 43.05-35.6L43.05-35.6 51.35-35.6 56.35-35.75Q60.85-35.75 64.05-33.48 67.25-31.2 67.25-27.35L67.25-27.35Q67.25-24.8 66.27-22.88 65.3-20.95 64.12-20.1 62.95-19.25 61.97-18.63 61-18 61-17.8L61-17.8Q61-17.2 65.2-11.33 69.4-5.45 70.95-3.8L70.95-3.8Q72.85-1.45 75.55-1.45L75.55-1.45Q76.25-1.45 76.25-0.85L76.25-0.85Q76.25-0.1 75.65 0.15 75.05 0.4 72.62 0.4 70.2 0.4 68.25-0.75L68.25-0.75Q65.55-2.3 59.3-12.75L59.3-12.75Q56.9-16.65 55.6-16.65L55.6-16.65 51.5-16.65Q50.9-16.65 50.77-16.15 50.65-15.65 50.65-13.2L50.65-13.2Q50.65-13.2 50.65-9.15L50.65-9.15 50.7-6.5Q50.7-6.5 50.7-6.05L50.7-6.05Q50.7-4 51.65-2.88 52.6-1.75 53.77-1.58 54.95-1.4 55.9-1.18 56.85-0.95 56.85-0.45L56.85-0.45Q56.85 0.35 55.95 0.35L55.95 0.35Q55.95 0.35 48.8 0L48.8 0 43.3 0.2Q42.25 0.2 42.25-0.6L42.25-0.6Q42.25-1.45 44.35-1.7L44.35-1.7Q45.15-1.8 45.8-2.8 46.45-3.8 46.45-5.65L46.45-5.65ZM50.65-28.2L50.65-26.8Q50.65-21.65 50.7-20.43 50.75-19.2 51.05-19L51.05-19Q51.8-18.55 53.2-18.55L53.2-18.55 55.15-18.55Q59.4-18.55 61.22-20.5 63.05-22.45 63.05-25.53 63.05-28.6 60.62-31.15 58.2-33.7 53.3-33.7L53.3-33.7Q51.45-33.7 51.05-32.73 50.65-31.75 50.65-28.2L50.65-28.2ZM79.7-35.9Q80.34-35.9 83.77-35.7 87.2-35.5 97.25-35.5 107.3-35.5 109.4-35.8L109.4-35.8Q109.95-35.8 110.15-35.5 110.34-35.2 110.34-34.95L110.34-34.95 110.65-30.9Q110.65-29.65 110.5-29.33 110.34-29 109.84-29L109.84-29Q109.45-29 109.17-30.03 108.9-31.05 108.59-31.6L108.59-31.6Q107.84-32.9 104.25-32.9L104.25-32.9 97.75-32.9Q96.55-32.9 96.27-32.43 96-31.95 96-29.7L96-29.7 96-27.25 95.84-8.95 95.8-5.7Q95.8-3.55 96.47-2.9 97.15-2.25 97.95-1.93 98.75-1.6 99.3-1.55L99.3-1.55Q100.7-1.45 100.7-0.65L100.7-0.65Q100.7-0.1 100.45 0.05 100.2 0.2 99.5 0.2L99.5 0.2 93.95-0.2 88.84 0.15Q87 0.15 87-0.65L87-0.65Q87-1.15 87.3-1.33 87.59-1.5 88.47-1.63 89.34-1.75 89.59-1.8L89.59-1.8Q91.3-2.2 91.5-3.8L91.5-3.8Q92-8.2 92-22.7L92-22.7 91.95-31.65Q91.95-32.6 91.4-32.83 90.84-33.05 87.75-33.05 84.65-33.05 82.87-32.85 81.09-32.65 80.8-32.48 80.5-32.3 80.07-31.75 79.65-31.2 79.37-30.48 79.09-29.75 79-29.3L79-29.3Q78.84-28.15 78.05-28.15L78.05-28.15Q77.5-28.15 77.5-29L77.5-29Q77.5-31 77.75-32.63 78-34.25 78.02-34.5 78.05-34.75 78.07-34.83 78.09-34.9 78.12-35.08 78.15-35.25 78.2-35.33 78.25-35.4 78.32-35.52 78.4-35.65 78.5-35.7 78.59-35.75 78.75-35.8L78.75-35.8Q79.05-35.9 79.7-35.9ZM117.59-17.25L117.59-20.1 117.64-25.5 117.64-27.8Q117.64-30 117.47-31.33 117.29-32.65 116.12-33.3 114.94-33.95 113.79-34 112.64-34.05 112.64-34.77 112.64-35.5 114.04-35.5L114.04-35.5 119.69-35.3 124.09-35.4Q125.44-35.4 125.44-34.7L125.44-34.7Q125.44-34.3 123.14-33.35L123.14-33.35Q121.54-32.7 121.54-27.6L121.54-27.6 121.39-9.1Q121.39-4.9 122.57-3.2 123.74-1.5 125.04-1.5L125.04-1.5 126.04-1.45Q126.39-1.45 126.74-1.28 127.09-1.1 127.09-0.7L127.09-0.7Q127.09 0 125.84 0L125.84 0 121.09-0.2 115.59 0.05Q113.34 0.05 113.34-0.7L113.34-0.7Q113.34-1.4 114.89-1.6L114.89-1.6Q115.49-1.65 116.14-2.23 116.79-2.8 116.97-3.53 117.14-4.25 117.37-9.58 117.59-14.9 117.59-17.25L117.59-17.25ZM156.39-18.5L161.94-18.25 165.94-18.3 166.69-18.3Q167.49-18.3 167.49-17.85L167.49-17.85Q167.49-17.5 166.22-16.95 164.94-16.4 164.79-15.55L164.79-15.55Q164.44-13.4 164.44-10.93 164.44-8.45 164.49-7.3 164.54-6.15 164.57-5.68 164.59-5.2 164.64-4.85 164.69-4.5 164.69-4.3 164.69-4.1 164.32-3.98 163.94-3.85 163.09-3.63 162.24-3.4 161.54-2.98 160.84-2.55 160.49-2.35 160.14-2.15 159.57-1.85 158.99-1.55 158.39-1.25 157.79-0.95 157.04-0.63 156.29-0.3 155.49-0.05 154.69 0.2 153.84 0.4L153.84 0.4Q151.94 0.85 150.24 0.85L150.24 0.85Q144.79 0.85 140.77-0.63 136.74-2.1 134.54-4.6L134.54-4.6Q130.24-9.55 130.24-16.45L130.24-16.45Q130.24-21.9 132.42-26.25 134.59-30.6 139.09-33.27 143.59-35.95 149.79-35.95L149.79-35.95Q155.74-35.95 160.09-33.7L160.09-33.7Q161.09-33.15 161.62-32.77 162.14-32.4 162.27-32.4 162.39-32.4 162.92-32.77 163.44-33.15 163.64-33.15L163.64-33.15Q164.39-33.15 164.42-31.93 164.44-30.7 164.62-29.1 164.79-27.5 164.94-26.45 165.09-25.4 165.09-25.2L165.09-25.2Q165.09-24.35 164.49-24.35 163.89-24.35 163.64-24.95L163.64-24.95Q161.89-28.75 157.79-31.38 153.69-34 149.34-34L149.34-34Q143.09-34 139.02-30.08 134.94-26.15 134.94-19.2L134.94-19.2Q134.94-14.6 136.64-10.55 138.34-6.5 141.82-3.85 145.29-1.2 149.47-1.2 153.64-1.2 156.77-2.95 159.89-4.7 160.24-6.95L160.24-6.95Q160.39-8.15 160.39-13.25L160.39-13.25Q160.39-15.2 159.67-15.93 158.94-16.65 157.39-16.82 155.84-17 155.67-17.32 155.49-17.65 155.49-17.95L155.49-17.95Q155.49-18.5 156.39-18.5L156.39-18.5ZM174.74-11.55L174.74-17.75 174.89-26.4Q174.89-27.75 174.79-30.95L174.79-30.95Q174.74-32.4 173.54-33.2 172.34-34 170.74-34.05L170.74-34.05Q169.94-34.05 169.94-34.95L169.94-34.95Q169.94-35.65 171.34-35.65L171.34-35.65 172.69-35.55 184.89-35.3 194.89-35.5Q195.84-35.5 195.84-34.35L195.84-34.35Q195.84-34.05 195.54-32.38 195.24-30.7 195.24-29.75L195.24-29.75Q195.24-28.15 194.46-28.15 193.69-28.15 193.69-29.35 193.69-30.55 192.84-31.65 191.99-32.75 190.74-32.8L190.74-32.8Q186.24-33.15 183.84-33.15L183.84-33.15 182.54-33.15Q179.94-33.15 179.54-32.8L179.54-32.8Q178.79-32.15 178.79-21.75L178.79-21.75Q178.79-19.25 179.74-19.2L179.74-19.2 184.64-19.2Q187.64-19.2 188.64-19.4L188.64-19.4Q191.24-19.9 191.59-22L191.59-22Q191.74-22.85 192.24-22.85 192.74-22.85 192.84-22.7 192.94-22.55 192.94-22.05L192.94-22.05 192.54-16.8 192.69-13.75Q192.69-12.5 192.34-12.5L192.34-12.5Q191.59-12.5 191.24-13.7L191.24-13.7Q190.54-15.8 189.99-16.15L189.99-16.15Q188.94-16.85 186.34-16.85L186.34-16.85 182.74-16.85 181.14-16.9 180.79-16.9Q178.74-16.9 178.74-15.95L178.74-15.95 178.64-8.75 178.64-6.75Q178.64-3.15 179.86-2.78 181.09-2.4 181.99-2.4L181.99-2.4Q189.49-2.4 192.84-3.6L192.84-3.6Q195.79-4.7 196.44-5.9L196.44-5.9Q197.04-7.15 197.54-7.15L197.54-7.15Q198.14-7.15 198.14-6.3L198.14-6.3Q198.14-4.15 195.99-1.95 193.84 0.25 192.24 0.25L192.24 0.25Q188.64 0.25 184.11 0 179.59-0.25 178.49-0.25L178.49-0.25 171.69 0.2Q170.64 0.2 170.64-0.3L170.64-0.3 170.64-0.9Q170.64-1.2 171.14-1.3L171.14-1.3Q171.69-1.35 172.84-1.9 173.99-2.45 174.36-4.2 174.74-5.95 174.74-11.55L174.74-11.55ZM211.69 0.2L206.34 0.1 202.09 0.2Q200.99 0.2 200.99-0.6L200.99-0.6Q200.99-1.05 201.64-1.18 202.29-1.3 203.24-1.95 204.19-2.6 204.59-4.08 204.99-5.55 205.44-13.7 205.89-21.85 205.89-25.55 205.89-29.25 204.69-31.38 203.49-33.5 200.79-33.8L200.79-33.8Q200.14-33.85 200.14-34.55L200.14-34.55Q200.14-34.85 200.49-35.13 200.84-35.4 201.39-35.4L201.39-35.4 203.29-35.35 205.74-35.45Q206.19-35.45 206.79-35.18 207.39-34.9 207.49-34.68 207.59-34.45 208.04-33.93 208.49-33.4 209.24-32.55 209.99-31.7 210.59-30.9L210.59-30.9Q217.39-22.05 228.79-9.55L228.79-9.55Q229.09-9.2 229.51-8.75 229.94-8.3 230.11-8.08 230.29-7.85 230.49-7.65L230.49-7.65Q230.84-7.3 231.04-7.3L231.04-7.3Q231.54-7.3 231.54-10.4L231.54-10.4 231.54-16.25 231.44-26.5 231.44-26.85Q231.44-31.45 229.84-32.7L229.84-32.7Q229.24-33.15 228.84-33.27 228.44-33.4 227.69-33.55L227.69-33.55Q225.64-33.95 225.64-34.68 225.64-35.4 226.59-35.4L226.59-35.4 231.34-35.35Q231.34-35.35 235.84-35.45L235.84-35.45Q236.69-35.45 237.01-35.27 237.34-35.1 237.34-34.75 237.34-34.4 237.04-34.2L237.04-34.2Q236.64-33.95 235.59-33.6L235.59-33.6Q233.94-32.7 233.94-27.95L233.94-27.95 233.94-26.05 233.39-1.3 233.39-0.3Q233.39 0.85 232.69 0.85L232.69 0.85Q232.24 0.85 231.89 0.5L231.89 0.5Q215.29-18.75 212.06-22.38 208.84-26 208.49-26L208.49-26Q207.99-26 207.99-21.93 207.99-17.85 207.79-12.38 207.59-6.9 207.59-6.4L207.59-6.4Q207.59-4.15 208.36-2.98 209.14-1.8 210.04-1.65 210.94-1.5 211.71-1.33 212.49-1.15 212.49-0.63 212.49-0.1 212.31 0.05 212.14 0.2 211.69 0.2L211.69 0.2ZM241.23-16.25Q241.23-21.65 243.33-26 245.43-30.35 249.81-33.02 254.18-35.7 260.18-35.7L260.18-35.7Q263.23-35.7 266.33-34.8 269.43-33.9 271.28-33L271.28-33 273.13-32.05Q273.28-32.05 273.63-32.3 273.98-32.55 274.21-32.55 274.43-32.55 274.68-32.35 274.93-32.15 274.96-31.23 274.98-30.3 275.16-28.68 275.33-27.05 275.48-26 275.63-24.95 275.63-24.75L275.63-24.75Q275.63-23.85 275.03-23.85L275.03-23.85Q274.58-23.85 274.18-24.55L274.18-24.55Q269.33-33.65 260.18-33.65L260.18-33.65Q253.93-33.65 249.93-29.65 245.93-25.65 245.93-19.2L245.93-19.2Q245.93-12 249.63-6.9L249.63-6.9Q251.53-4.3 254.83-2.8 258.13-1.3 262.53-1.3L262.53-1.3Q269.73-1.3 274.63-8.8L274.63-8.8Q274.83-9.15 275.38-9.15L275.38-9.15Q275.83-9.15 275.83-8.53 275.83-7.9 275.66-6.98 275.48-6.05 275.23-4.93 274.98-3.8 274.93-3.55L274.93-3.55Q274.83-3 274.13-2.65L274.13-2.65Q271.43-1.35 269.93-0.7L269.93-0.7Q265.93 1 261.41 1 256.88 1 253.38-0.05 249.88-1.1 247.66-2.8 245.43-4.5 243.93-6.8L243.93-6.8Q241.23-10.85 241.23-16.25ZM285.18-11.55L285.18-17.75 285.33-26.4Q285.33-27.75 285.23-30.95L285.23-30.95Q285.18-32.4 283.98-33.2 282.78-34 281.18-34.05L281.18-34.05Q280.38-34.05 280.38-34.95L280.38-34.95Q280.38-35.65 281.78-35.65L281.78-35.65 283.13-35.55 295.33-35.3 305.33-35.5Q306.28-35.5 306.28-34.35L306.28-34.35Q306.28-34.05 305.98-32.38 305.68-30.7 305.68-29.75L305.68-29.75Q305.68-28.15 304.91-28.15 304.13-28.15 304.13-29.35 304.13-30.55 303.28-31.65 302.43-32.75 301.18-32.8L301.18-32.8Q296.68-33.15 294.28-33.15L294.28-33.15 292.98-33.15Q290.38-33.15 289.98-32.8L289.98-32.8Q289.23-32.15 289.23-21.75L289.23-21.75Q289.23-19.25 290.18-19.2L290.18-19.2 295.08-19.2Q298.08-19.2 299.08-19.4L299.08-19.4Q301.68-19.9 302.03-22L302.03-22Q302.18-22.85 302.68-22.85 303.18-22.85 303.28-22.7 303.38-22.55 303.38-22.05L303.38-22.05 302.98-16.8 303.13-13.75Q303.13-12.5 302.78-12.5L302.78-12.5Q302.03-12.5 301.68-13.7L301.68-13.7Q300.98-15.8 300.43-16.15L300.43-16.15Q299.38-16.85 296.78-16.85L296.78-16.85 293.18-16.85 291.58-16.9 291.23-16.9Q289.18-16.9 289.18-15.95L289.18-15.95 289.08-8.75 289.08-6.75Q289.08-3.15 290.31-2.78 291.53-2.4 292.43-2.4L292.43-2.4Q299.93-2.4 303.28-3.6L303.28-3.6Q306.23-4.7 306.88-5.9L306.88-5.9Q307.48-7.15 307.98-7.15L307.98-7.15Q308.58-7.15 308.58-6.3L308.58-6.3Q308.58-4.15 306.43-1.95 304.28 0.25 302.68 0.25L302.68 0.25Q299.08 0.25 294.56 0 290.03-0.25 288.93-0.25L288.93-0.25 282.13 0.2Q281.08 0.2 281.08-0.3L281.08-0.3 281.08-0.9Q281.08-1.2 281.58-1.3L281.58-1.3Q282.13-1.35 283.28-1.9 284.43-2.45 284.81-4.2 285.18-5.95 285.18-11.55L285.18-11.55Z" fill="#000000" data-fill-palette-color="primary"></path></g></svg></g></svg></g><g transform="matrix(1,0,0,1,163.310208,59.98288719704485)"><svg viewBox="0 0 232.209792 26.354058225036525" height="26.354058225036525" width="232.209792"><g transform="matrix(1,0,0,1,0,0)"><svg width="232.209792" viewBox="0.45000001788139343 -33.900001525878906 307.92999267578125 34.95000076293945" height="26.354058225036525" data-palette-color="#636365"><path d="M30.55-33L30.55-33 30.6-31.7Q30.6-27.8 29.9-23.5L29.9-23.5 26.5-23.5 25.85-29.15 18.55-29.55 18.55-3.15 24-2.45 23.95 0 7.5 0 7.2-1.6 10.85-3 12.45-3.55 12.45-29.55 5.15-29.15 4.5-23.5 1.15-23.5Q0.45-27.6 0.45-31.4L0.45-31.4 0.5-33 15.6-32.8Q23.55-32.8 30.55-33ZM54.1-9.7L57.5-9.45Q57.6-4.45 56.9 0L56.9 0 32.2 0 31.9-1.6 36.15-3.4 36.15-29.85 32.55-30.2 32.6-32.7 57.05-32.7 57.1-31.3Q57.1-27.75 56.4-23.85L56.4-23.85 52.95-23.85 52.2-28.65 42.25-29.3 42.25-17.95 53.4-18.85 53.4-14.15 42.25-14.6 42.25-3.7 52.6-4.3 54.1-9.7ZM87.05-6.65L88.15-3.65 78.09 0.8Q70.34 0.95 65.77-3.65 61.2-8.25 61.2-15.95L61.2-15.95Q61.2-23.7 65.7-28.7 70.2-33.7 77.34-33.7L77.34-33.7Q83.05-33.7 87.3-30.6L87.3-30.6 87.25-30.45 87.3-29.05Q87.3-25.3 86.3-22.2L86.3-22.2 82.5-22.2 81.7-27.95Q78.3-29.7 74.25-29.7L74.25-29.7 73.05-29.65Q70.25-27.85 68.95-24.43 67.64-21 67.64-17.15L67.64-17.15Q67.64-11 70.77-7.33 73.9-3.65 79.09-3.95L79.09-3.95 87.05-6.65ZM121.34-29.35L121.24 0 115.19 0.6 115.14 0.6 115.19 0.55 98.39-25.7 99.19-19.2 99.19-3 103.59-2.45 103.54 0 90.64 0 90.34-1.6 94.59-3.4 94.59-29.8 91.19-30.25 91.24-32.7 101.29-32.7 117.54-6.95 116.74-13.35 116.74-29.6 111.84-30.25 111.89-32.7 125.19-32.7 125.49-31.1Q123.99-30.25 121.34-29.35L121.34-29.35ZM142.74-33.7L142.74-33.7Q149.69-33.7 154.19-28.78 158.69-23.85 158.69-15.95L158.69-15.95Q158.69-8.3 154.34-3.65 149.99 1 143.09 1L143.09 1Q136.14 1 131.67-3.73 127.19-8.45 127.19-16.15L127.19-16.15Q127.19-23.9 131.59-28.8 135.99-33.7 142.74-33.7ZM137.84-29L137.84-29Q135.99-27.55 134.87-24.23 133.74-20.9 133.74-16.95L133.74-16.95Q133.74-10.6 136.52-6.8 139.29-3 143.99-3L143.99-3Q145.64-3 147.34-3.45L147.34-3.45Q149.44-4.95 150.74-8.28 152.04-11.6 152.04-15.7L152.04-15.7Q152.04-22 149.32-25.9 146.59-29.8 142.09-29.8L142.09-29.8Q140.04-29.8 137.84-29ZM183.99-11L187.59-10.75Q187.69-4.2 186.94 0L186.94 0 161.24 0 160.94-1.6 165.19-3.4 165.19-29.75 161.34-30.25 161.39-32.7 175.24-32.7 175.54-31.1Q174.29-30.4 171.29-29.3L171.29-29.3 171.29-3.75 182.34-4.45 183.99-11ZM205.09-33.7L205.09-33.7Q212.04-33.7 216.54-28.78 221.04-23.85 221.04-15.95L221.04-15.95Q221.04-8.3 216.69-3.65 212.34 1 205.44 1L205.44 1Q198.49 1 194.01-3.73 189.54-8.45 189.54-16.15L189.54-16.15Q189.54-23.9 193.94-28.8 198.34-33.7 205.09-33.7ZM200.19-29L200.19-29Q198.34-27.55 197.21-24.23 196.09-20.9 196.09-16.95L196.09-16.95Q196.09-10.6 198.86-6.8 201.64-3 206.34-3L206.34-3Q207.99-3 209.69-3.45L209.69-3.45Q211.79-4.95 213.09-8.28 214.39-11.6 214.39-15.7L214.39-15.7Q214.39-22 211.66-25.9 208.94-29.8 204.44-29.8L204.44-29.8Q202.39-29.8 200.19-29ZM252.88-12.05L252.88-3.55 252.93-3.5 242.73 1 241.33 1.05Q235.73 1.05 231.96-1.35 228.18-3.75 226.36-7.58 224.53-11.4 224.53-15.7L224.53-15.7Q224.53-23.55 229.46-28.63 234.38-33.7 242.28-33.7L242.28-33.7Q248.38-33.7 252.58-30.65L252.58-30.65 252.53-30.5 252.58-29.3Q252.58-26.15 251.63-22.8L251.63-22.8 247.88-22.8 247.03-27.85Q243.03-29.75 238.63-29.75L238.63-29.75 236.73-29.65Q233.83-27.85 232.38-24.28 230.93-20.7 230.93-16.4L230.93-16.4Q230.93-10.7 233.91-7.03 236.88-3.35 241.68-3.3L241.68-3.3Q243.83-3.25 247.08-4L247.08-4 247.08-11.3Q243.78-12.4 241.83-13.4L241.83-13.4 242.13-15.1 256.68-15.1 256.73-12.7 252.88-12.05ZM268.23-3.05L272.98-2.45 272.93 0 258.18 0 257.88-1.6 262.13-3.4 262.13-29.75 258.28-30.25 258.33-32.7 272.18-32.7 272.48-31.1Q271.23-30.4 268.23-29.3L268.23-29.3 268.23-3.05ZM304.78-2.9L308.38-2.45 308.33 0 293.78 0 293.48-1.6Q295.13-2.5 298.08-3.5L298.08-3.5 295.73-9.55 283.03-9.55 280.53-3.1 285.43-2.45 285.38 0 272.13 0 271.83-1.6Q273.63-2.55 275.98-3.35L275.98-3.35 287.38-31.1 286.88-32.35 292.13-33.9 304.78-2.9ZM284.33-13L294.38-13 289.38-25.95 284.33-13Z" opacity="1" transform="matrix(1,0,0,1,0,0)" fill="#000000" class="undefined-text-1" data-fill-palette-color="secondary" id="text-1"></path></svg></g></svg></g></svg></g></svg></g><g transform="matrix(1,0,0,1,422.8082564062632,0)"><svg viewBox="0 0 119.12787060782395 119.31765857331649" height="119.31765857331649" width="119.12787060782395"><g><svg xmlns="http://www.w3.org/2000/svg" xmlns:xlink="http://www.w3.org/1999/xlink" version="1.1" x="0" y="0" viewBox="8.018001556396484 7.978999137878418 48.96399688720703 49.0420036315918" enable-background="new 7.5 7.5 50 50" xml:space="preserve" width="119.12787060782395" height="119.31765857331649" class="icon-icon-0" data-fill-palette-color="accent" id="icon-0"><circle cx="44.813" cy="46.596" r="1.2" fill="#000000" data-fill-palette-color="accent"></circle><circle cx="53.258" cy="29.034" r="1.1" fill="#000000" data-fill-palette-color="accent"></circle><circle cx="36.542" cy="36.079" r="1.2" fill="#000000" data-fill-palette-color="accent"></circle><path d="M51.323 20.075c-0.131 0.202-0.386 0.292-0.613 0.192-0.076-0.034-0.194-0.091-0.347-0.166-1.233-0.605-4.983-2.443-7.314-1.18-1.081 0.586-1.741 1.815-1.964 3.652-0.003 0.026-0.016 0.048-0.022 0.073-0.008 0.028-0.014 0.055-0.025 0.081-0.017 0.033-0.038 0.061-0.061 0.089-0.016 0.02-0.028 0.042-0.047 0.059-0.029 0.027-0.064 0.047-0.1 0.067-0.019 0.011-0.034 0.025-0.055 0.033-0.058 0.023-0.12 0.038-0.186 0.038 0 0 0 0-0.001 0l0 0h-4.692c-0.229 0.999-1.121 1.748-2.188 1.748-1.24 0-2.248-1.008-2.248-2.248s1.008-2.249 2.248-2.249c1.067 0 1.96 0.75 2.188 1.749h4.267c0.318-1.934 1.123-3.274 2.408-3.971 2.472-1.343 5.978 0.091 7.676 0.893-0.009-6.042-4.929-10.956-10.975-10.956-2.454 0-4.843 0.832-6.771 2.351-1.932-1.519-4.321-2.351-6.774-2.351-6.05 0-10.972 4.922-10.972 10.972 0 0.041 0.003 0.079 0.004 0.12 1.698-0.797 5.204-2.224 7.668-0.882 1.38 0.751 2.212 2.235 2.475 4.41 0.001 0.011-0.003 0.02-0.002 0.031 0 0.01 0.006 0.019 0.006 0.029v3.987h3.657c0.229-0.999 1.12-1.749 2.188-1.749 1.24 0 2.249 1.009 2.249 2.249s-1.009 2.249-2.249 2.249c-1.067 0-1.959-0.75-2.188-1.749h-4.157c-0.276 0-0.5-0.224-0.5-0.5v-4.449c-0.224-1.823-0.881-3.044-1.956-3.63-2.321-1.262-6.072 0.566-7.306 1.168-0.16 0.078-0.283 0.138-0.361 0.172-0.258 0.108-0.549-0.008-0.658-0.26-0.005-0.011-0.003-0.023-0.007-0.035-3.445 2.071-5.6 5.796-5.6 9.899 0 4.671 2.821 8.853 7.09 10.642 1.187-1.711 3.272-3.39 6.316-4.323-0.071-3.709-1.632-6.795-3.478-6.795h-4.204c-0.225 0.898-1.033 1.569-2 1.569-1.141 0-2.069-0.928-2.069-2.069s0.928-2.069 2.069-2.069c0.967 0 1.775 0.67 2 1.569h4.204c2.415 0 4.322 3.267 4.47 7.527 1.158-0.273 2.438-0.44 3.844-0.47 0.224-1.006 1.12-1.762 2.192-1.762 1.24 0 2.249 1.009 2.249 2.248s-1.009 2.248-2.249 2.248c-1.063 0-1.95-0.743-2.184-1.735-6.295 0.137-9.852 3.162-10.987 5.768-0.07 0.161-0.22 0.251-0.382 0.278-0.096 0.62-0.145 1.246-0.145 1.873 0 6.898 5.611 12.511 12.509 12.511 1.569 0 3.096-0.31 4.559-0.888-0.839-4.981-4.729-8.791-9.459-9.013-0.238 0.986-1.122 1.724-2.181 1.724-1.24 0-2.248-1.009-2.248-2.248 0-1.24 1.008-2.249 2.248-2.249 1.077 0 1.977 0.762 2.196 1.773 4.76 0.209 8.759 3.691 10.12 8.441 1.361-4.751 5.36-8.232 10.12-8.441 0.219-1.012 1.119-1.773 2.195-1.773 1.239 0 2.248 1.009 2.248 2.249 0 1.239-1.009 2.248-2.248 2.248-1.058 0-1.942-0.738-2.18-1.724-4.73 0.222-8.62 4.03-9.46 9.012 1.462 0.578 2.988 0.889 4.56 0.889 6.9 0 12.515-5.612 12.515-12.511 0-0.624-0.049-1.249-0.146-1.872-0.163-0.026-0.313-0.116-0.385-0.278-1.14-2.606-4.699-5.632-10.991-5.769-0.233 0.993-1.121 1.736-2.185 1.736-1.239 0-2.248-1.009-2.248-2.248s1.009-2.248 2.248-2.248c1.072 0 1.969 0.756 2.192 1.761 1.406 0.029 2.688 0.196 3.846 0.47 0.148-4.26 2.057-7.527 4.474-7.527h4.204c0.225-0.898 1.032-1.569 2-1.569 1.141 0 2.069 0.928 2.069 2.069s-0.929 2.069-2.069 2.069c-0.968 0-1.775-0.67-2-1.569h-4.204c-1.847 0-3.41 3.086-3.481 6.796 3.044 0.934 5.131 2.613 6.318 4.324 4.269-1.786 7.092-5.97 7.092-10.644C56.982 25.883 54.803 22.139 51.323 20.075z" fill="#000000" data-fill-palette-color="accent"></path><path d="M20.182 45.347c-0.688 0-1.248 0.561-1.248 1.249s0.56 1.248 1.248 1.248c0.688 0 1.247-0.559 1.248-1.246 0 0 0-0.001 0-0.002s0-0.002 0-0.002C21.429 45.906 20.87 45.347 20.182 45.347z" fill="#000000" data-fill-palette-color="accent"></path><circle cx="33.708" cy="22.514" r="1.2" fill="#000000" data-fill-palette-color="accent"></circle><circle cx="11.742" cy="29.034" r="1.1" fill="#000000" data-fill-palette-color="accent"></circle><circle cx="30.75" cy="27.146" r="1.2" fill="#000000" data-fill-palette-color="accent"></circle><path d="M28.452 37.326c0.688 0 1.249-0.56 1.249-1.248s-0.56-1.248-1.249-1.248c-0.687 0-1.245 0.558-1.248 1.244 0 0.002 0.001 0.003 0.001 0.004s-0.001 0.002-0.001 0.004C27.207 36.769 27.765 37.326 28.452 37.326z" fill="#000000" data-fill-palette-color="accent"></path></svg></g></svg></g></svg></g></svg><rect width="395.52" height="87.08133295880349" fill="none" stroke="none" visibility="hidden"></rect></g></svg></g></svg>